<svg width="1335" height="342" viewBox="0 0 1335 342" fill="none" xmlns="http://www.w3.org/2000/svg">
<path d="M232.324 89.6888L227.492 65.0518H144.369L19.3058 129.682L0 184.149H3.43689L19.2433 139.114V184.149L5.15369 232.252L18.898 269.016H32.9843L29.3928 232.252L64.3899 181.357L145.783 213.812L159.028 262.382L169.559 269.016H183.635L221.099 201.327L236.56 204.862V225.046L260.266 232.252L296 189.99V107.528L232.324 89.6888Z" fill="#397EE7"/>
<path d="M205.101 261.024L221.098 269.016H235.171L215.063 223.847L205.101 261.024Z" fill="#216AD1"/>
<path d="M45.8242 245.51L56.0033 269.015H70.0831L66.1397 208.332L45.8242 245.51Z" fill="#216AD1"/>
<path d="M450.576 271.88C431.376 271.88 416.496 265.448 405.936 252.584V261.8C405.936 263.72 405.264 265.448 403.92 266.984C402.576 268.328 400.848 269 398.736 269H366.192C364.272 269 362.544 268.328 361.008 266.984C359.664 265.448 358.992 263.72 358.992 261.8V71.72C358.992 69.608 359.664 67.88 361.008 66.536C362.544 65.192 364.272 64.52 366.192 64.52H401.328C403.44 64.52 405.168 65.192 406.512 66.536C407.856 67.88 408.528 69.608 408.528 71.72V133.352C419.28 122.024 433.296 116.36 450.576 116.36C469.2 116.36 483.888 122.408 494.64 134.504C505.392 146.6 511.152 163.016 511.92 183.752C512.112 186.248 512.208 189.704 512.208 194.12C512.208 198.344 512.112 201.704 511.92 204.2C510.96 225.704 505.2 242.408 494.64 254.312C484.08 266.024 469.392 271.88 450.576 271.88ZM435.024 233.288C444.048 233.288 450.48 230.6 454.32 225.224C458.352 219.848 460.656 212.456 461.232 203.048C461.616 199.208 461.808 196.232 461.808 194.12C461.808 192.008 461.616 189.032 461.232 185.192C460.656 175.784 458.352 168.392 454.32 163.016C450.48 157.64 444.048 154.952 435.024 154.952C426.576 154.952 420.144 157.544 415.728 162.728C411.312 167.912 408.912 174.44 408.528 182.312L408.24 192.968L408.528 203.912C409.104 212.552 411.408 219.656 415.44 225.224C419.664 230.6 426.192 233.288 435.024 233.288Z" fill="#00BF71"/>
<path d="M589.928 271.88C573.032 271.88 559.4 266.216 549.032 254.888C538.664 243.368 533.48 227.336 533.48 206.792V126.44C533.48 124.328 534.152 122.6 535.496 121.256C536.84 119.912 538.568 119.24 540.68 119.24H576.68C578.792 119.24 580.52 119.912 581.864 121.256C583.4 122.6 584.168 124.328 584.168 126.44V205.064C584.168 223.88 592.52 233.288 609.224 233.288C617.288 233.288 623.624 230.792 628.232 225.8C632.84 220.808 635.144 213.896 635.144 205.064V126.44C635.144 124.328 635.816 122.6 637.16 121.256C638.696 119.912 640.424 119.24 642.344 119.24H678.344C680.456 119.24 682.184 119.912 683.528 121.256C684.872 122.6 685.544 124.328 685.544 126.44V261.8C685.544 263.72 684.872 265.448 683.528 266.984C682.184 268.328 680.456 269 678.344 269H644.936C643.016 269 641.288 268.328 639.752 266.984C638.408 265.448 637.736 263.72 637.736 261.8V250.856C627.752 264.872 611.816 271.88 589.928 271.88Z" fill="#FCB544"/>
<path d="M737.852 269C735.932 269 734.204 268.328 732.668 266.984C731.324 265.448 730.652 263.72 730.652 261.8V156.968H708.764C706.652 156.968 704.924 156.296 703.58 154.952C702.236 153.608 701.564 151.88 701.564 149.768V126.44C701.564 124.328 702.236 122.6 703.58 121.256C704.924 119.912 706.652 119.24 708.764 119.24H730.652V110.024C730.652 91.016 736.028 77.288 746.78 68.84C757.724 60.2 773.372 55.88 793.724 55.88H816.188C818.3 55.88 820.028 56.552 821.372 57.896C822.716 59.24 823.388 60.968 823.388 63.08V86.408C823.388 88.328 822.716 90.056 821.372 91.592C820.028 92.936 818.3 93.608 816.188 93.608H796.028C789.692 93.608 785.18 95.144 782.492 98.216C779.804 101.096 778.46 105.512 778.46 111.464V119.24H835.196V110.024C835.196 91.016 840.572 77.288 851.324 68.84C862.268 60.2 878.012 55.88 898.556 55.88H920.732C922.844 55.88 924.572 56.552 925.916 57.896C927.26 59.24 927.932 60.968 927.932 63.08V86.408C927.932 88.328 927.26 90.056 925.916 91.592C924.572 92.936 922.844 93.608 920.732 93.608H900.572C894.236 93.608 889.724 95.144 887.036 98.216C884.348 101.096 883.004 105.512 883.004 111.464V119.24H917.852C919.964 119.24 921.692 119.912 923.036 121.256C924.38 122.6 925.052 124.328 925.052 126.44V149.768C925.052 151.688 924.38 153.416 923.036 154.952C921.692 156.296 919.964 156.968 917.852 156.968H883.004V261.8C883.004 263.912 882.332 265.64 880.988 266.984C879.644 268.328 877.916 269 875.804 269H842.684C840.572 269 838.748 268.328 837.212 266.984C835.868 265.64 835.196 263.912 835.196 261.8V156.968H778.46V261.8C778.46 263.72 777.788 265.448 776.444 266.984C775.1 268.328 773.372 269 771.26 269H737.852Z" fill="#FF7F3C"/>
<path d="M984.859 271.88C974.683 271.88 965.371 269.96 956.923 266.12C948.667 262.088 942.139 256.712 937.339 249.992C932.731 243.08 930.427 235.496 930.427 227.24C930.427 213.992 935.803 203.336 946.555 195.272C957.499 187.208 972.475 181.64 991.483 178.568L1027.48 173.096V169.064C1027.48 161.768 1025.95 156.392 1022.87 152.936C1019.8 149.48 1014.62 147.752 1007.32 147.752C1002.91 147.752 999.259 148.52 996.379 150.056C993.499 151.592 990.523 153.704 987.451 156.392C984.763 158.696 982.747 160.232 981.403 161C980.827 162.536 979.771 163.304 978.235 163.304H946.843C944.923 163.304 943.291 162.728 941.947 161.576C940.795 160.232 940.315 158.696 940.507 156.968C940.699 151.784 943.195 146.024 947.995 139.688C952.987 133.352 960.475 127.88 970.459 123.272C980.635 118.664 993.115 116.36 1007.9 116.36C1031.51 116.36 1048.99 121.64 1060.31 132.2C1071.64 142.568 1077.31 156.584 1077.31 174.248V261.8C1077.31 263.72 1076.63 265.448 1075.29 266.984C1073.95 268.328 1072.22 269 1070.11 269H1036.7C1034.78 269 1033.05 268.328 1031.51 266.984C1030.17 265.448 1029.5 263.72 1029.5 261.8V251.72C1025.27 257.672 1019.32 262.568 1011.64 266.408C1004.15 270.056 995.227 271.88 984.859 271.88ZM998.395 239.048C1007.23 239.048 1014.33 236.168 1019.71 230.408C1025.27 224.648 1028.06 216.2 1028.06 205.064V201.032L1003.58 205.352C986.299 208.424 977.659 214.472 977.659 223.496C977.659 228.296 979.675 232.136 983.707 235.016C987.739 237.704 992.635 239.048 998.395 239.048Z" fill="#F1355B"/>
<path d="M1111.25 269C1109.33 269 1107.6 268.328 1106.06 266.984C1104.72 265.448 1104.05 263.72 1104.05 261.8V71.72C1104.05 69.608 1104.72 67.88 1106.06 66.536C1107.6 65.192 1109.33 64.52 1111.25 64.52H1145.23C1147.34 64.52 1149.07 65.192 1150.41 66.536C1151.76 67.88 1152.43 69.608 1152.43 71.72V261.8C1152.43 263.912 1151.76 265.64 1150.41 266.984C1149.07 268.328 1147.34 269 1145.23 269H1111.25Z" fill="#A361E5"/>
<path d="M1251.54 271.88C1227.73 271.88 1209.4 266.216 1196.53 254.888C1183.67 243.56 1176.66 227.624 1175.51 207.08C1175.32 204.584 1175.22 200.264 1175.22 194.12C1175.22 187.976 1175.32 183.656 1175.51 181.16C1176.66 160.808 1183.86 144.968 1197.11 133.64C1210.36 122.12 1228.5 116.36 1251.54 116.36C1274.77 116.36 1293.01 122.12 1306.26 133.64C1319.51 144.968 1326.71 160.808 1327.86 181.16C1328.05 183.656 1328.15 187.976 1328.15 194.12C1328.15 200.264 1328.05 204.584 1327.86 207.08C1326.71 227.624 1319.7 243.56 1306.84 254.888C1293.97 266.216 1275.54 271.88 1251.54 271.88ZM1251.54 236.744C1259.99 236.744 1266.23 234.248 1270.26 229.256C1274.29 224.072 1276.6 216.2 1277.17 205.64C1277.36 203.72 1277.46 199.88 1277.46 194.12C1277.46 188.36 1277.36 184.52 1277.17 182.6C1276.6 172.232 1274.2 164.456 1269.97 159.272C1265.94 154.088 1259.8 151.496 1251.54 151.496C1235.6 151.496 1227.16 161.864 1226.2 182.6L1225.91 194.12L1226.2 205.64C1226.58 216.2 1228.79 224.072 1232.82 229.256C1237.04 234.248 1243.28 236.744 1251.54 236.744Z" fill="#397EE7"/>
</svg>
