<svg width="296" height="204" viewBox="0 0 296 204" fill="none" xmlns="http://www.w3.org/2000/svg">
<path d="M232.324 24.6371L227.492 0H144.369L19.3058 64.63L0 119.097H3.43689L19.2433 74.0625V119.097L5.15369 167.201L18.898 203.964H32.9843L29.3928 167.201L64.3899 116.305L145.783 148.76L159.028 197.33L169.559 203.964H183.635L221.099 136.275L236.56 139.811V159.995L260.266 167.201L296 124.938V42.476L232.324 24.6371Z" fill="#397EE7"/>
<path d="M205.101 195.973L221.098 203.965H235.171L215.063 158.795L205.101 195.973Z" fill="#216AD1"/>
<path d="M45.8242 180.458L56.0033 203.964H70.0831L66.1397 143.28L45.8242 180.458Z" fill="#216AD1"/>
</svg>
